<svg width="40" height="40" viewBox="0 0 40 40" fill="none" xmlns="http://www.w3.org/2000/svg">
<path d="M10 36.6667V6.66671C10 5.78265 10.3512 4.93481 10.9763 4.30968C11.6014 3.68456 12.4493 3.33337 13.3333 3.33337H26.6667C27.5507 3.33337 28.3986 3.68456 29.0237 4.30968C29.6488 4.93481 30 5.78265 30 6.66671V36.6667H10Z" stroke="white" stroke-width="3.33333" stroke-linecap="round" stroke-linejoin="round"/>
<path d="M9.9987 20H6.66536C5.78131 20 4.93346 20.3512 4.30834 20.9763C3.68322 21.6014 3.33203 22.4493 3.33203 23.3333V33.3333C3.33203 34.2174 3.68322 35.0652 4.30834 35.6904C4.93346 36.3155 5.78131 36.6667 6.66536 36.6667H9.9987" stroke="white" stroke-width="3.33333" stroke-linecap="round" stroke-linejoin="round"/>
<path d="M30 15H33.3333C34.2174 15 35.0652 15.3512 35.6904 15.9763C36.3155 16.6014 36.6667 17.4493 36.6667 18.3333V33.3333C36.6667 34.2174 36.3155 35.0652 35.6904 35.6904C35.0652 36.3155 34.2174 36.6667 33.3333 36.6667H30" stroke="white" stroke-width="3.33333" stroke-linecap="round" stroke-linejoin="round"/>
<path d="M16.668 10H23.3346" stroke="white" stroke-width="3.33333" stroke-linecap="round" stroke-linejoin="round"/>
<path d="M16.668 16.6666H23.3346" stroke="white" stroke-width="3.33333" stroke-linecap="round" stroke-linejoin="round"/>
<path d="M16.668 23.3333H23.3346" stroke="white" stroke-width="3.33333" stroke-linecap="round" stroke-linejoin="round"/>
<path d="M16.668 30H23.3346" stroke="white" stroke-width="3.33333" stroke-linecap="round" stroke-linejoin="round"/>
</svg>
