<svg width="211" height="43" viewBox="0 0 211 43" fill="none" xmlns="http://www.w3.org/2000/svg">
<circle cx="21.0306" cy="21.0307" r="21.0306" fill="#4C3DFB"/>
<circle cx="29.7989" cy="17.6299" r="16.377" fill="url(#paint0_linear_143_4205)"/>
<circle cx="16.2866" cy="26.1317" r="8.56004" fill="#155DFC" stroke="white" stroke-width="4"/>
<path d="M59.8677 14.3426L56.5797 22.2386L55.8117 24.0626L55.4757 24.6386L55.3797 24.4466L55.2597 23.9426L55.6437 21.6146L55.9317 20.9426L55.8837 20.9906L55.7157 20.9186L55.6437 20.5346L55.6197 19.7666L55.7157 18.8066L56.5317 16.4546L57.4917 14.1026L58.3317 12.5906L58.5477 12.3986L58.9317 12.3266H59.0517L59.2677 12.5186L59.4117 12.6626L59.3637 12.9746L59.3157 13.1906L59.4837 12.9746L59.6517 12.8546L59.8437 12.8786L60.1317 12.9266L60.1557 13.1906L60.1797 13.4546L60.1077 13.6946L59.8677 14.3426ZM57.1557 14.2946L56.0037 17.0546L55.6677 17.7266L55.4757 17.9186L55.2597 17.7266L55.2357 16.6946L56.0037 14.5586L55.8597 14.4146L55.8837 14.0306L56.1717 12.9266L56.4357 12.4946H56.6997H56.8917V12.6146L56.9397 12.9746H57.1077L57.4197 12.9986V13.2386L57.4437 13.5026L57.1557 14.2946ZM60.2037 15.1586L56.8197 23.2946L56.0277 25.1906L55.6437 25.6946L55.6917 25.5026L55.8117 25.0226L56.0757 24.3986L55.9797 24.4946L56.0037 24.3746L56.1237 23.8946L56.9397 21.9506L59.6757 15.3506L60.3717 13.6946L60.7077 13.2866L60.6597 13.5506L60.5637 13.8386L60.8277 13.5506L60.7557 13.7906L60.2037 15.1586ZM60.6357 17.4386L57.4197 25.1666L56.6277 27.1106L56.4117 27.5666L56.3397 27.7586L56.2677 27.6626L56.0997 27.8066L55.9557 27.9506L55.8357 27.7826L55.6677 27.5666L55.6437 27.1106L55.7877 26.2706L56.4837 24.4706L59.8917 16.2626L60.7797 14.0786L61.1157 13.4786L61.2357 13.3106L61.6437 13.3346L61.7157 13.5986L61.5957 14.8706L61.1397 15.9986L61.1157 16.2626L60.6357 17.4386ZM61.4037 20.2946L61.2117 21.7586L60.3237 24.0386L58.7877 27.7346L58.1397 28.7906L57.8277 28.9826L57.3717 29.0546L57.1317 28.9346L56.9157 28.6706L56.9397 28.4546L57.0117 28.0466L56.8437 28.1426L56.7237 28.1906L56.6517 28.0226L56.5797 27.7586L56.6757 27.4706L57.5637 25.3346L60.4917 18.2786L61.2117 16.5746L61.5717 16.0706L61.8117 16.2866L61.7877 16.4786L61.3317 18.1586L61.2597 18.3506L61.3317 18.3986L61.3797 18.6626L61.4037 20.2946ZM61.1637 24.9746L60.3717 26.9906L59.8677 28.2146L59.6037 28.6466L59.2677 28.7666L59.1477 28.8146L59.0997 28.6706L59.0037 28.3346L59.0757 28.0466L59.0997 27.9746L59.0277 27.9506L59.0997 27.6866L59.4837 26.6786L60.8277 23.4146L61.1877 22.5986L61.3317 22.3106H61.5957L61.5237 22.5746L61.2357 23.3906L61.2117 23.4386L61.3077 23.7026L61.3317 24.1586L61.1637 24.9746ZM61.1877 28.3826L60.9477 28.7666L60.6357 28.8626L60.4437 28.7906L60.2757 28.5026L60.3477 28.1906L60.6117 27.4706L60.6357 27.2066L61.3317 25.5506L61.6917 25.0226L61.7397 25.3346L61.6437 25.7186L61.2837 26.5826L61.3077 26.7026L61.3557 26.9666L61.1877 28.3826ZM66.8316 13.6706L65.1036 17.8706L64.6236 18.9026L64.3116 19.0706L64.1436 18.8066L64.1676 17.4626L64.5996 15.9746L64.8396 15.3986L64.7196 15.2546L64.6956 15.0386V13.2146L64.7916 12.7826L64.9596 12.4946L65.0556 12.3266L65.4876 12.1106L65.8236 12.2066L65.9916 12.2546L66.0396 12.3746L66.1596 12.7586L66.1356 12.9026L66.3276 12.7346L66.6156 12.7826L66.8316 12.8306L66.8556 13.0226L66.9276 13.3586L66.8316 13.6706ZM77.2476 12.5906L77.5836 12.3266L77.9676 12.4706V12.5906V12.7586L78.0156 12.7106L78.2556 12.5906L78.4956 12.4706L78.8556 12.5426L78.9996 12.5666L79.0716 12.6866L79.2396 12.9986L79.1916 13.1906L79.0716 13.6706L75.4236 22.4786L74.8956 23.7266L74.3196 24.5906L74.0556 24.7826L73.7436 24.8546L73.5516 24.8786L73.4076 24.7346L73.1676 24.5186V24.3986L73.1436 24.0146L73.1676 23.9426L72.9996 24.0866L72.7356 24.0146L72.5436 23.9906L72.4476 23.7986L72.3276 23.5106L72.3756 23.1266L72.6636 22.2866L73.1676 21.0386L75.0156 16.5506L76.4076 13.8146L77.2476 12.5906ZM81.8556 14.5826L78.3516 23.0306L77.8476 24.2786L77.6316 24.7586L77.1036 26.0546L76.6956 26.5586L76.7196 26.4146L76.8636 25.9106L77.1036 25.3346L76.8876 25.2866L76.8636 25.0946L76.8396 24.6146L77.1036 22.5746L78.2556 19.7186L80.1516 15.1106L81.0396 13.0466L81.2076 12.7586L81.4476 12.5666L81.6156 12.4226L81.7356 12.4706L82.0716 12.5666L82.1916 12.8546L81.8556 14.5826ZM70.0716 15.1586L69.4236 16.9106L68.6076 18.9266L65.8956 25.4066L64.8876 27.8306L64.6236 28.3346L64.4076 28.3106L64.2156 28.2626L64.1436 28.0706L64.0716 27.7586L64.0956 27.3746L64.7196 25.5506L64.5996 25.6946L64.6716 25.5266L64.8396 25.0466L65.1036 24.4226L65.0316 24.4706L64.9356 24.6866L64.7676 24.9026L64.9116 24.5426L64.7916 24.6386L64.7196 24.4466L64.6476 23.8706L65.1756 21.5426L68.0556 14.5826L68.7756 12.9506L69.1356 12.5906L69.2796 12.4466L69.5436 12.5906L69.7116 12.7106L69.7356 12.9506L69.4956 14.0066L69.4716 14.2466L69.3996 14.4146L69.8316 14.2946L70.0716 14.5106V14.7026V15.1586ZM67.9596 14.1026L65.3196 20.4866L64.6716 21.9506L64.2636 22.2626L64.1436 21.7586L64.5516 19.9346L64.8156 19.3106V19.2386L65.2716 18.0386L66.8316 14.2706L67.2876 13.2626L67.5036 12.9986V13.1666L67.5756 13.0706L67.6956 12.9266L67.8876 12.9506H68.0796L68.1276 13.1666L68.1756 13.4306L67.9596 14.1026ZM79.8636 15.0146L77.9436 19.6706L77.2956 21.2066L76.9356 22.0946L76.7196 22.4786L76.4556 22.5986L75.8316 22.9346L75.3996 23.5586L75.2796 23.7746L75.1356 23.6306L75.1836 23.5106L75.1116 23.4386L75.2556 23.0786L75.8796 21.5906L78.3516 15.6386L79.1436 13.7426L79.4796 13.2386L79.4556 13.3826V13.4066L79.7196 13.1186L79.9116 12.9746L80.3196 13.0706L80.3436 13.2146L80.4156 13.5506L80.2956 13.9346L79.8636 15.0146ZM70.7916 17.5346L67.2876 25.9586L66.7596 27.2066L66.4236 27.9506L66.2316 28.2866L66.0156 28.3106L65.8956 28.3586V28.1666L65.9676 27.8786L65.7276 28.1906L65.5836 28.3106L65.3436 28.2146L65.1756 28.1426L65.1996 27.9266L65.3436 27.4226L66.1116 25.5266L69.3276 17.7986L70.2396 15.6146L70.5756 15.1346L70.7676 15.0386L71.0316 15.3506L70.9836 15.6626L70.7196 16.5506L71.0556 16.3826V16.5746L71.0316 16.8626L70.7916 17.5346ZM81.4236 19.6706L78.6156 26.4146L77.9436 27.9986L77.6316 28.4066L77.6556 28.2866L77.6796 28.1426L77.4636 28.3106L77.2236 28.2386L77.0316 28.1906L76.9836 27.9986L76.8876 27.7106L76.9356 27.3506L77.2236 26.4146L77.7756 25.0706L80.9436 17.3906L81.7356 15.4946L82.1676 15.0626L82.3356 15.2546L82.3596 15.4466L82.2876 17.1746L81.6876 18.7826L81.7356 18.7586L81.6876 18.9506L81.4236 19.6706ZM69.5436 26.7746L69.3996 28.4306L69.2796 28.7426L69.0636 28.9826L68.9196 29.1266L68.6556 29.1986L68.4156 29.2466L68.1996 29.0786L68.0316 28.9346V28.7426L68.1036 28.1906L68.2476 27.8306L67.5276 28.6946L67.2156 28.7666L66.9036 28.6226L66.7116 28.5266L66.6876 28.3346L66.6396 27.9986L66.7116 27.7586L67.4076 26.0306L70.3596 18.9026L71.1756 16.9586L71.3196 16.6706L71.5596 16.5026L71.7516 16.3826L72.0156 16.5266L72.2076 16.6226L72.3276 16.8626L72.5436 17.6066L72.4956 18.1106L72.2316 18.8066L73.1436 18.3506L73.8396 17.4386L74.2716 16.9586L74.1996 17.1986L73.7676 18.2786L71.9676 22.6226L71.4396 23.6546L71.2476 23.9186H71.0556L70.7676 23.9426L70.5756 23.6786L70.6716 22.0706L70.4556 22.3586L70.2636 22.6226L70.1676 22.9346L69.9756 24.1586L69.3756 25.7426L69.4476 25.8866L69.5436 26.7746ZM82.0236 24.5186L81.9756 26.0066L81.4476 27.6626L81.0876 28.4306L80.7756 28.8146L80.5356 28.9346L80.3436 29.0306L79.9836 28.9826L79.7916 28.8386L79.5996 28.5026L79.6476 28.2386L79.8156 27.6386L79.3596 28.4786L79.1436 28.6706L78.8556 28.7186L78.5436 28.6466L78.3036 28.4306L78.2796 28.1426L78.7596 26.5586L81.1116 20.8946L81.7596 19.4306L82.1196 19.3586L82.1916 19.6226L82.2636 20.7266L82.0956 22.1906L81.6876 23.2466L81.9276 23.2706L81.9756 23.5106L82.0236 24.5186ZM81.6156 28.2626L81.5676 27.8786L81.6876 27.5666L81.7596 27.3746L81.9276 27.2546L82.1676 27.1586L82.2396 27.4706L82.2156 27.9266L82.1916 28.1186L82.0236 28.3106L81.8076 28.4786L81.6156 28.2626ZM92.7623 14.2946L88.2263 25.2146L87.0983 27.8786L86.8103 28.3586L86.5943 28.5266L86.4263 28.6466L86.2583 28.5506L86.0423 28.4546V28.2626L86.1143 27.7586L86.1863 27.5666L85.8023 28.3106L85.4183 28.6466L85.2743 28.7426L85.0103 28.7186L84.7463 28.6946L84.6263 28.5266L84.4583 28.2866L84.4823 28.0706L84.5783 27.5426L85.7543 24.6626L89.1863 16.3826L90.1463 14.0306L90.8423 12.7346L91.2983 12.4226L91.6103 12.3986L91.8023 12.3746L91.9943 12.5666L92.1383 12.7106V12.9506L91.9703 13.6466L92.1863 13.1666L92.4263 12.8546L92.6663 12.7586L92.8823 12.6866L93.0263 12.9026L93.1223 13.0466L93.0743 13.3106L92.7623 14.2946ZM89.7383 14.5826L85.4903 24.8306L84.4343 27.3746L84.0983 27.9986L84.0023 28.1666L83.8343 28.0946L83.6423 28.0226L83.6903 27.8306L83.8343 27.3986L84.9383 24.6866L85.7783 22.7186L88.2023 15.7346L88.8743 13.7906L89.3543 12.7346L89.7143 12.3986L89.8823 12.4466L90.0743 12.4706V12.6626L90.0263 13.1666L90.0023 13.2386L90.0503 13.2146L90.0983 13.4786L90.0023 13.9346L89.7383 14.5826ZM94.7063 14.4866L93.8663 16.5506L93.3383 17.7266L93.0263 18.1586L92.2103 18.8546L92.0183 19.3346L91.7543 20.2466L91.3463 21.7826L91.0343 23.2946L89.9303 26.0066L89.2343 27.6626L88.7063 28.5986L88.4903 28.8386L88.2023 28.9586L88.0103 29.0306L87.7463 28.9826L87.5303 28.9346L87.3863 28.7186L87.2423 28.5026V28.3106L87.3383 27.8066L88.5383 24.8306L91.9463 16.6226L92.9543 14.1986L93.2663 13.5986L93.3623 13.3826L93.6743 12.8066V12.9026L94.3223 12.5666L94.5623 12.4946L94.8023 12.6386L95.0183 12.7826L95.0663 13.0946L94.7063 14.4866ZM96.4103 16.3106L93.0503 24.3986L92.5943 25.4546L92.1143 26.2946L91.8743 26.5346L91.5623 26.6306L91.3703 26.6786L90.9143 26.4146V26.2706L90.8663 25.9106L90.9623 25.6466L91.0823 25.3586L90.3863 26.7506L89.8823 27.5426L89.6903 27.6866L89.5463 27.5426L89.6423 27.2306L89.9303 26.4626L91.1543 23.5106L91.4903 22.8386L91.7063 22.6466L91.9223 22.4786L92.0423 22.6946L92.1623 22.9346L92.0903 23.0786L92.7383 22.3346L93.2183 22.1186L93.4583 21.9026L93.5783 21.7826L93.6023 21.5906L93.6263 21.2546L93.5303 20.7506L93.4823 19.7186L93.8663 18.6866L93.7943 18.7826L93.6263 18.6866L93.4583 18.6146V18.4706V18.0866L93.9863 16.7186L94.9943 14.2466L95.5223 13.2146L95.8343 13.0466L96.0983 13.2146L96.0503 13.5266L95.8343 14.0786L96.1463 13.9826L96.3863 14.0546L96.6503 14.4386L96.7223 14.7986L96.4103 16.3106ZM97.4423 19.6226L95.7863 23.7026L95.1143 25.2866L94.7303 26.1746L94.2263 26.7746L94.0343 26.9186L93.6503 26.9906L93.5303 27.0146L93.2663 26.8226L93.0983 26.7266L93.0743 26.5826L93.0263 26.2226L93.0743 26.0786L92.7623 26.1266L92.6423 26.1506V26.0066L92.6903 25.4786L93.4103 23.6786L95.9063 17.6546L96.5303 16.1906L96.8423 15.7826L97.1543 16.0946L97.1303 16.3586L96.8903 17.2226L96.8663 17.2946H96.9863L97.3223 17.4146L97.4903 17.6786L97.6103 18.0386L97.4423 19.6226ZM99.4103 24.2786L98.3543 26.9426L97.6343 28.4306L97.2263 28.7906L96.8903 28.8866L96.6743 28.9346L96.4103 28.7426L96.2423 28.6226L96.1943 28.4306L96.1223 28.1186L96.2183 27.6146L96.3383 27.2546L96.0263 27.4466L95.7863 27.2786L95.6183 27.1586L95.4983 26.9426L95.2583 26.2226L95.2823 25.8866L95.8343 24.3026L97.2983 20.7746L97.8983 19.4306L98.1143 19.1186L98.3303 19.0946H98.6183L98.7863 19.4066L99.0503 20.6066L99.0023 21.0386L98.6663 21.9986L98.9543 21.9266L99.1463 21.9746L99.4103 22.3586L99.6023 23.2946L99.4103 24.2786ZM100.058 27.4226L99.8903 27.7586L99.6503 28.0706L99.5303 28.2386L99.1223 28.5506L98.7863 28.5746L98.5943 28.5986L98.4023 28.4306L98.2583 28.2866V28.0466L98.4023 27.2786L99.4343 24.8066L99.7703 24.1826L99.8903 24.0146L100.082 24.0626L100.37 24.0866L100.538 24.4466L100.394 26.4866L100.154 27.0866L100.178 27.1346L100.058 27.4226ZM101.69 27.9266L101.426 28.3346L100.946 28.4786L100.634 28.3586L100.466 28.2866L100.394 28.0466L100.346 27.7826L100.466 27.3026L100.826 26.6066L100.994 26.3666L101.258 26.4626L101.45 26.5586L101.57 26.8226L101.762 27.4946L101.69 27.9266ZM108.552 19.9586L107.448 22.8146L105.672 27.0626L104.88 28.6226L104.76 28.7906L104.448 28.8866L104.304 28.9346L104.232 28.7426L104.112 28.4786L104.16 28.2146L104.448 27.4706L104.352 27.7106L103.968 28.2866L103.824 28.4306L103.656 28.2866L103.488 28.1426L103.536 28.0226L103.632 27.6146L103.56 27.7106L103.416 27.5666L103.224 27.3746L103.2 27.1826L103.176 26.7746L103.271 25.8146L103.944 23.9426L107.352 15.7346L108.192 13.6706L108.648 12.8306L108.816 12.6146L109.272 12.3986L109.512 12.4946L109.68 12.5666L109.704 12.7106L109.68 13.1426L109.776 12.9986L109.944 12.9266H110.16L110.232 13.1906L110.184 13.6226L109.896 14.3426L110.472 13.2386L110.64 13.0466L110.904 13.0226L111.096 13.0706L111.192 13.3346L111.144 13.7666L110.712 14.8946L110.28 15.8786L109.992 16.3106L109.68 16.5746L109.416 16.4306L109.296 16.3586L108.456 18.4226L108.504 18.3746L108.624 18.6386L108.672 19.0706L108.552 19.9586ZM107.616 14.7746L104.376 22.5506L103.584 24.4466L103.488 24.6146L103.104 24.8066L103.08 24.5906L103.128 24.0386L103.632 22.6946L103.464 22.9826L103.271 22.9586L103.104 22.9346L103.056 22.7186L103.032 22.2386L103.104 20.4626L103.896 18.0866L105.432 14.4386L106.368 12.6866L106.632 12.4706L107.016 12.3986L107.232 12.4706L107.544 12.7346V12.9986V13.2866L107.424 13.5986L107.496 13.4546L107.928 13.0946L108.12 13.4066L108 13.7666L107.616 14.7746ZM105.648 13.5506L104.904 15.4466L103.824 18.0386L103.464 18.8786L103.32 19.1666L102.984 19.3106L102.912 19.1186L102.84 18.4226L102.96 15.7826L103.608 13.9826L104.136 12.9746L104.52 12.6386L104.832 12.5426L105.024 12.4946L105.288 12.5906L105.528 12.6866L105.6 12.8546L105.696 13.1666L105.648 13.5506ZM112.32 14.2226L111.624 15.8546L111.336 16.2866L111.216 16.4546L111.024 16.4306H110.76L110.736 16.1666L110.688 15.9266L110.784 15.6146L110.76 15.6386L110.808 15.5186L110.832 15.4466L110.856 15.3986L110.88 15.3266L110.976 15.0386L111.48 13.7906L111.648 13.4546L111.72 13.2626L111.984 13.1666L112.008 13.1426H112.2H112.416L112.464 13.3346L112.536 13.6226L112.32 14.2226ZM113.856 14.2706L111.504 19.9346L110.16 23.1986L109.512 24.0386L109.032 24.2306L108.936 24.4226L108.743 24.6866L108.696 25.0946L108.672 26.2226L108.048 28.2386L107.736 28.8626L107.592 29.0786L107.352 29.1746L107.088 29.2706L106.632 29.0306L106.608 28.8386L106.632 28.3826L107.88 25.3106L109.176 22.1666L109.896 20.4626L110.544 19.6226L111.288 18.8786L111.432 17.1026L112.08 15.2786V15.2546L112.272 14.7026L112.704 13.7666L112.728 13.7186L112.752 13.6226L112.848 13.5026V13.4786L113.064 13.1666L113.016 13.3586L113.256 13.1426L113.64 13.1906L113.832 13.3106L114.023 13.6466L113.976 13.8386L113.856 14.2706ZM103.224 14.2226L102.936 14.5826L102.648 14.3186L102.672 14.1266L102.792 13.5506L102.888 13.3106L103.296 13.1906L103.344 13.3106L103.44 13.6226L103.368 13.8146L103.224 14.2226ZM115.32 16.2386L112.704 22.5506L111.672 25.0466L111.456 25.4306L111.288 25.6226L111.096 25.6466L111.12 25.5026L111.216 24.9746V24.9266L111.024 24.9506L110.88 24.9746L110.736 24.8306L110.544 24.6146L110.472 24.3506L110.784 22.2386L113.256 16.2866L114.023 14.4386L114.504 13.6226L114.911 13.3586H115.128L115.488 13.4786L115.752 13.7666L115.776 14.0306L115.512 15.1346L115.632 15.0626V15.2546L115.32 16.2386ZM117.552 18.8066L116.4 21.5906L115.656 22.9586L115.2 24.4466L114.096 27.1826L113.52 28.3826L113.328 28.6466L113.016 28.7906L112.872 28.8626L112.68 28.7906L112.368 28.5986L112.152 28.2626V28.0706L112.224 27.4466L112.392 27.0386L112.32 27.0866L112.152 27.2066L112.008 27.0626L111.792 26.8226L111.72 26.4146L111.816 25.5506L112.416 24.0146L115.344 16.9826L116.112 15.1586L116.424 14.6786L116.544 14.5106L116.736 14.5346L117.072 14.6546L117.264 14.9426V15.2066L117.072 16.1666H117.048L117.168 16.0706L117.336 16.1906L117.576 16.3346L117.696 16.6226L117.552 18.8066ZM109.272 15.9746L109.464 15.3986L108.12 18.6386L108.312 18.4946L109.008 16.8146L109.248 16.2626L109.272 15.9746ZM117.816 20.2946L117.576 20.6546L117.336 20.7986L117.168 20.8946L117.192 20.7746L117.264 20.3426L117.816 18.9746L118.008 18.5426H118.152L118.368 18.6146L118.32 18.9266L117.816 20.2946ZM109.56 20.8706L106.968 27.1346L106.272 28.5266L106.08 28.7426L105.816 28.7186H105.672L105.648 28.5746L105.624 28.0466L105.888 27.4226V27.3986L106.056 26.8946L106.44 25.9586L108.36 21.3506L108.912 20.1266L109.176 19.7906L109.152 20.0066L109.32 19.8866L109.488 19.9346L109.704 20.0306V20.2466L109.56 20.8706ZM115.536 27.1106L115.104 28.1186L114.864 28.4786L114.576 28.7426L114.504 28.6226L114.336 28.3826L114.384 28.1186L114.48 27.8786L114.312 27.8546L114.336 27.5906L114.624 26.6786L115.608 24.3746L115.752 24.0866L116.016 23.8946L116.184 23.8466L116.232 24.1586L116.16 24.5906L115.872 25.3106L116.064 25.4786L116.016 25.8626L115.536 27.1106ZM116.376 28.5746H116.112H115.992L115.968 28.4546L115.92 28.1186L116.016 27.7586L116.256 27.1826L115.752 28.1186L115.512 28.2866L115.44 28.0466L115.512 27.6146L115.776 26.9666L116.28 25.9346L116.544 25.7426L116.616 25.9826L116.592 26.2946L116.328 27.0386L116.376 26.9426L116.52 26.6546L116.904 26.3906L117.048 26.5346L117.216 26.6786L117.192 26.7986L117.168 27.2546L116.928 27.8306L116.376 28.5746ZM117.456 28.5986L117.144 28.4306L117.12 28.2386L117.072 27.9746L117.264 27.4946L117.432 27.3986L117.672 27.2546L117.84 27.3746L118.056 27.5186L118.08 27.6626L118.128 28.0706L117.912 28.4306L117.84 28.5506L117.456 28.5986ZM108.528 27.7826L108.768 27.3746L108.864 27.5426L109.032 27.7346L108.936 28.1186L108.912 28.2386L108.6 28.3826L108.552 28.2626L108.528 27.7826ZM128.2 14.2946L123.664 25.2146L122.536 27.8786L122.248 28.3586L122.032 28.5266L121.864 28.6466L121.696 28.5506L121.48 28.4546V28.2626L121.552 27.7586L121.624 27.5666L121.24 28.3106L120.856 28.6466L120.712 28.7426L120.448 28.7186L120.184 28.6946L120.064 28.5266L119.896 28.2866L119.92 28.0706L120.016 27.5426L121.192 24.6626L124.624 16.3826L125.584 14.0306L126.28 12.7346L126.736 12.4226L127.048 12.3986L127.24 12.3746L127.432 12.5666L127.576 12.7106V12.9506L127.408 13.6466L127.624 13.1666L127.864 12.8546L128.104 12.7586L128.32 12.6866L128.464 12.9026L128.56 13.0466L128.512 13.3106L128.2 14.2946ZM125.176 14.5826L120.928 24.8306L119.872 27.3746L119.536 27.9986L119.44 28.1666L119.272 28.0946L119.08 28.0226L119.128 27.8306L119.272 27.3986L120.376 24.6866L121.216 22.7186L123.64 15.7346L124.312 13.7906L124.792 12.7346L125.152 12.3986L125.32 12.4466L125.512 12.4706V12.6626L125.464 13.1666L125.44 13.2386L125.488 13.2146L125.536 13.4786L125.44 13.9346L125.176 14.5826ZM130.144 14.4866L129.304 16.5506L128.776 17.7266L128.464 18.1586L127.648 18.8546L127.456 19.3346L127.192 20.2466L126.784 21.7826L126.472 23.2946L125.368 26.0066L124.672 27.6626L124.144 28.5986L123.928 28.8386L123.64 28.9586L123.448 29.0306L123.184 28.9826L122.968 28.9346L122.824 28.7186L122.68 28.5026V28.3106L122.776 27.8066L123.976 24.8306L127.384 16.6226L128.392 14.1986L128.704 13.5986L128.8 13.3826L129.112 12.8066V12.9026L129.76 12.5666L130 12.4946L130.24 12.6386L130.456 12.7826L130.504 13.0946L130.144 14.4866ZM131.848 16.3106L128.488 24.3986L128.032 25.4546L127.552 26.2946L127.312 26.5346L127 26.6306L126.808 26.6786L126.352 26.4146V26.2706L126.304 25.9106L126.4 25.6466L126.52 25.3586L125.824 26.7506L125.32 27.5426L125.128 27.6866L124.984 27.5426L125.08 27.2306L125.368 26.4626L126.592 23.5106L126.928 22.8386L127.144 22.6466L127.36 22.4786L127.48 22.6946L127.6 22.9346L127.528 23.0786L128.176 22.3346L128.656 22.1186L128.896 21.9026L129.016 21.7826L129.04 21.5906L129.064 21.2546L128.968 20.7506L128.92 19.7186L129.304 18.6866L129.232 18.7826L129.064 18.6866L128.896 18.6146V18.4706V18.0866L129.424 16.7186L130.432 14.2466L130.96 13.2146L131.272 13.0466L131.536 13.2146L131.488 13.5266L131.272 14.0786L131.584 13.9826L131.824 14.0546L132.088 14.4386L132.16 14.7986L131.848 16.3106ZM132.88 19.6226L131.224 23.7026L130.552 25.2866L130.168 26.1746L129.664 26.7746L129.472 26.9186L129.088 26.9906L128.968 27.0146L128.704 26.8226L128.536 26.7266L128.512 26.5826L128.464 26.2226L128.512 26.0786L128.2 26.1266L128.08 26.1506V26.0066L128.128 25.4786L128.848 23.6786L131.344 17.6546L131.968 16.1906L132.28 15.7826L132.592 16.0946L132.568 16.3586L132.328 17.2226L132.304 17.2946H132.424L132.76 17.4146L132.928 17.6786L133.048 18.0386L132.88 19.6226ZM134.848 24.2786L133.792 26.9426L133.072 28.4306L132.664 28.7906L132.328 28.8866L132.112 28.9346L131.848 28.7426L131.68 28.6226L131.632 28.4306L131.56 28.1186L131.656 27.6146L131.776 27.2546L131.464 27.4466L131.224 27.2786L131.056 27.1586L130.936 26.9426L130.696 26.2226L130.72 25.8866L131.272 24.3026L132.736 20.7746L133.336 19.4306L133.552 19.1186L133.768 19.0946H134.056L134.224 19.4066L134.488 20.6066L134.44 21.0386L134.104 21.9986L134.392 21.9266L134.584 21.9746L134.848 22.3586L135.04 23.2946L134.848 24.2786ZM135.496 27.4226L135.328 27.7586L135.088 28.0706L134.968 28.2386L134.56 28.5506L134.224 28.5746L134.032 28.5986L133.84 28.4306L133.696 28.2866V28.0466L133.84 27.2786L134.872 24.8066L135.208 24.1826L135.328 24.0146L135.52 24.0626L135.808 24.0866L135.976 24.4466L135.832 26.4866L135.592 27.0866L135.616 27.1346L135.496 27.4226ZM137.128 27.9266L136.864 28.3346L136.384 28.4786L136.072 28.3586L135.904 28.2866L135.832 28.0466L135.784 27.7826L135.904 27.3026L136.264 26.6066L136.432 26.3666L136.696 26.4626L136.888 26.5586L137.008 26.8226L137.2 27.4946L137.128 27.9266ZM153.4 14.4146L152.68 16.1906L152.128 17.2706L151.888 17.5586L151.6 17.6546L151.408 17.7026L151.264 17.5826L151.072 17.4146L151.048 17.2706V16.9106L151.168 16.5266H151.072L151 16.2626L150.904 16.0226L151.024 15.5186L151.336 14.7026L151.912 13.3346L152.392 12.4946L152.536 12.3026L152.872 12.1586L152.992 12.1106L153.232 12.2546L153.4 12.3746L153.376 12.7106L153.136 13.3826H153.208L153.4 13.4306L153.448 13.5986L153.544 13.9346L153.4 14.4146ZM148.312 21.1106L146.104 26.4146L145.552 27.7106L145.264 27.8306L145.12 28.1426L144.88 28.4546L144.736 28.6226L144.208 28.7426L144.064 28.5986L143.8 28.3826L143.824 28.1906L143.872 27.7346L145.096 24.7106L148.84 15.7346L149.8 13.4306L150.352 12.5906L150.52 12.4226L150.904 12.3266L151.024 12.2786L151.24 12.4466L151.408 12.5426V12.8306L151.216 13.4786L151.264 13.4306L151.36 13.5986L151.288 13.8626L151 14.6306L150.688 15.3986L150.304 16.2146L150.136 16.3826L150.064 16.2626L150.016 16.3346L149.752 16.6706L148.816 17.2466L148.6 17.4866L148.48 17.6306L148.456 17.8226L148.384 18.1346L148.456 18.4706L148.6 19.6946L148.504 19.9826L148.648 20.1506L148.576 20.4146L148.312 21.1106ZM145.288 13.4546L143.296 18.3026L142.912 19.2386L142.768 19.5266L142.384 19.5746L142.36 19.4546L142.312 19.1906L142.384 17.9186L142.984 16.3346L142.912 16.3106L142.72 16.2386L142.696 16.1186L142.672 15.8546L143.032 14.1746L143.488 13.1186L143.776 12.6866L144.04 12.4466L144.232 12.4706L144.424 12.4946L144.448 12.7106L144.472 12.9266L144.496 12.8546L144.808 12.6866L144.952 12.6146L145.096 12.7106L145.312 12.8306V12.9746L145.288 13.4546ZM154.72 15.6146L154.264 16.6706L154.096 16.9346H153.736L153.76 16.7906L153.808 16.4306L153.88 16.2626L153.76 16.2386L153.736 16.1186L153.712 15.5906L154.36 13.8626L154.888 12.7826L155.2 12.4706H155.608L155.776 12.7586L155.752 12.9266L155.152 14.6066L154.792 15.3266L154.72 15.6146ZM148.192 14.7026L143.968 24.9266L142.96 27.3506L142.648 27.8546L142.432 27.8306H142.288L142.264 27.6146L142.216 27.3266L142.312 26.8706L142.648 25.9106L142.768 25.6706L142.6 25.8386V25.6466L142.672 25.1186L143.584 22.8626L146.632 15.4946L147.4 13.6706L147.616 13.2146L147.712 13.0466L148.024 13.1186L148 13.2386L148.216 12.9266L148.36 12.7826L148.48 12.8546L148.672 12.9506V13.2386L148.192 14.7026ZM149.104 14.9186L144.952 24.9026L143.944 27.3266L143.68 27.9026L143.536 28.0226L143.368 27.8546L143.392 27.7826L143.128 27.8066L143.176 27.5906L143.344 26.9666L144.424 24.3506L148.12 15.4466L149.032 13.3106L149.368 12.9506L149.512 12.9026L149.488 13.0946L149.392 13.4306L149.416 13.4066L149.584 13.3346V13.6466L149.104 14.9186ZM142.48 12.9986L142.72 12.9506L142.84 12.9266L142.912 13.1906L142.96 13.3826L142.888 13.6226L142.648 14.2946L142.264 14.4866L142.144 14.2226L142.12 13.8386L142.48 12.9986ZM145.864 14.5826L143.392 20.5346L142.768 21.9986L142.36 22.3106L142.192 22.1186L142.216 21.7826L142.696 20.0546L145.048 14.4146L145.24 14.0066L145.48 13.4786L145.504 13.4546L145.528 13.3586L145.792 13.0706L146.032 12.9746L146.176 12.9986L146.272 13.2626L146.2 13.6946L145.864 14.5826ZM146.752 14.6546L143.44 22.6706L142.912 23.8946L142.648 24.5426L142.408 24.9506L142.264 24.9266H142.12V24.7346V24.1586L142.888 22.0946L145.72 15.2306L146.44 13.5986L146.56 13.4786V13.4546L146.776 13.2146L146.752 13.2866L146.92 13.1186L147.208 13.3106L147.136 13.6226L146.752 14.6546ZM155.92 15.9506L155.56 16.2146L155.44 15.9746L155.344 15.7826L155.416 15.6146L155.608 15.1346L155.776 14.8466L155.944 14.9426L156.112 15.0626V15.1826V15.4466L155.92 15.9506ZM154.744 21.6386L154.504 22.2386L154.168 22.7906L154.048 22.8866L153.664 23.1986L153.352 23.2946L153.16 23.3426L152.92 23.2706L152.68 23.2226L152.584 22.9826L152.488 22.7426L152.56 22.4786L152.848 21.6866L153.568 19.9106L153.952 19.1666L154.096 18.9506L154.36 18.7586L154.528 18.6386H154.84H155.032L155.224 18.8066L155.44 19.1186L155.464 19.5986L155.2 20.3186L154.864 21.1106L154.912 21.2066L154.744 21.6386ZM147.064 29.1986L146.8 29.5346L146.392 29.6066L146.2 29.5106L146.008 29.2466L146.056 28.8626L146.272 28.3106L146.152 28.2866L146.08 28.0946L145.984 27.8306L146.056 27.5666L146.728 25.8386L148.504 21.5426L149.104 20.1266L149.488 19.3106L149.824 18.9026L150.208 18.8546L150.4 18.9266L150.592 19.2626L150.544 19.5746L150.376 20.0546L150.52 20.1266L150.712 20.2466V20.3906L150.736 20.7506L150.64 21.0386L150.28 21.9506L149.632 23.4626L149.224 24.1826L148.792 24.4706L148.528 24.3986L148.264 25.2146L147.568 26.8946L147.328 27.4466V27.8306L147.064 29.1986ZM151.936 22.3826L151.36 23.5586L151.264 23.7266L150.904 23.6546L150.952 23.4626L151.072 23.0546L151.024 22.9346L150.88 22.5986L150.928 22.3346L151.12 21.7106L151.624 20.4866L151.984 19.6706L152.224 19.2866L152.44 19.1186L152.608 18.9746L152.776 19.0226L153.016 19.0946L153.04 19.3106L153.064 19.5986L152.848 20.1986L152.224 21.6866L152.152 21.8306L151.936 22.3826ZM155.2 23.0306L154.792 23.2466L154.672 23.0066L154.552 22.8386L154.624 22.5986L154.864 21.9266L155.176 21.4466L155.464 21.5666L155.488 21.7586L155.44 22.5986L155.2 23.0306ZM162.532 14.6786L159.34 22.3586L158.86 23.5586L158.572 24.1346L158.284 24.4466L157.996 24.3986L157.852 24.3506L157.804 24.1586L157.756 23.5586L158.284 21.9026L158.044 22.1426L157.996 22.0226L157.9 21.5666V19.7426L158.98 16.2626L159.892 14.0786L160.372 12.9026L160.66 12.4706L160.948 12.2786L161.116 12.1586L161.38 12.1346L161.62 12.1106L161.836 12.2546L162.052 12.3986L162.076 12.8546L161.98 13.0946L162.052 12.9746L162.508 12.7106L162.748 12.8306L162.916 12.9266L162.94 13.0706L162.964 13.4546L162.868 13.7906L162.532 14.6786ZM171.388 12.6866L171.484 13.1186L171.388 13.4306L171.076 14.1986L170.284 16.0946L166.972 24.1106L165.724 27.1346L165.316 28.0706L165.004 28.6946L164.668 29.0786L164.356 29.1986L164.164 29.2706L163.9 29.2466L163.612 29.1986L163.468 28.9826L163.3 28.7426L163.348 28.4786L163.468 28.0946L163.444 28.1426L163.3 28.2866L162.916 28.3826L162.7 28.3106L162.46 28.0706L162.484 27.8066L162.676 27.0626L163.492 25.0466L163.78 24.4706L163.9 24.2306L164.092 24.1586L164.332 24.0386L164.5 24.1586L164.716 24.3026L164.74 24.4226L164.836 24.8066L164.788 25.0466L164.74 25.2386L164.884 24.9746L166.228 24.2546L166.9 23.4866L167.092 22.0946L167.164 19.4306L167.764 17.6066L167.788 17.5826L167.572 17.6546L167.524 17.3906L167.476 16.4306L168.124 13.8866L168.7 12.7346L169.06 12.3746L169.324 12.3266L169.54 12.2786L169.708 12.4946L169.852 12.6626L169.828 12.9266L169.756 13.1666L170.068 12.7106L170.356 12.5186L170.86 12.4226L171.1 12.4946L171.388 12.6866ZM159.868 13.7666L158.548 16.9346L158.188 17.7026L158.044 17.9186L157.852 17.7506L157.66 17.5826L157.636 17.3186V16.6706L157.756 15.4946L158.236 14.0786L158.668 13.0946L158.98 12.6866L159.268 12.5426L159.46 12.4706L159.7 12.5666L159.94 12.6386L159.988 12.9026L160.06 13.1426L159.868 13.7666ZM172.468 14.9666L168.148 25.3586L167.14 27.7826L166.828 28.3346L166.708 28.4546L166.66 28.2626L166.684 28.1666L166.636 28.2626L166.348 28.5746L166.204 28.7186L165.94 28.7426L165.748 28.7666L165.652 28.5986L165.508 28.3586L165.532 28.1666L165.652 27.7106L166.828 24.8306L170.716 15.4466L171.34 13.9586L171.7 13.1426L171.94 12.7826L172.156 12.6146L172.324 12.4946L172.54 12.5426L172.756 12.6146L172.804 12.8066L172.9 13.0466L172.852 13.2386L172.756 13.5986L172.828 13.5506L172.876 13.8146L172.468 14.9666ZM167.908 13.8866L167.692 13.7186L167.74 13.5266L167.98 12.9266L168.076 12.7346L168.268 12.6626L168.388 12.6866V12.9506L167.908 13.8866ZM163.876 14.8226L163.756 15.7826L162.7 18.5906L160.612 23.6066L160.036 24.9746L159.676 25.7186H159.652V25.7426L159.604 25.7666L159.292 26.0066L159.028 25.9106L158.836 25.8626L158.764 25.6706L158.644 25.3586V25.0226L158.86 24.0386L159.388 22.7426L162.46 15.3506L163.18 13.6226L163.252 13.4546L163.66 13.2386L163.828 13.4786L163.876 13.8626V14.8226ZM167.524 14.4626L167.38 14.7506L167.308 14.8706L167.332 14.6786L167.572 14.1026L167.716 13.8626L167.644 14.1506L167.524 14.4626ZM172.9 17.3906L170.02 24.3506L169.06 26.6306L168.676 27.5426L168.58 27.5906L168.34 28.1186L167.932 28.5026L167.668 28.4066L167.476 28.3346L167.452 28.1426L167.428 27.8066L167.572 27.3986L167.932 26.4386L168.604 24.8546L171.964 16.7426L172.78 14.7986L173.044 14.3186L173.164 14.1506L173.284 14.2226L173.476 14.3186L173.5 14.4386L173.524 14.9426L173.404 15.9266L172.972 17.1506H172.996L172.9 17.3906ZM162.964 23.9186L162.1 25.9826L161.596 27.2306L161.38 27.6146L161.188 27.8306L161.044 27.9746L160.924 27.9026L160.732 27.8066L160.756 27.5186L160.828 27.3026L160.612 27.4706L160.396 27.4466L160.132 27.3986L160.012 27.2546L159.796 26.9906L159.724 26.4866L159.964 25.6226L160.588 24.0866L162.604 19.1906L163.3 17.5586L163.636 17.0786L163.684 17.1986L163.828 17.6546L163.852 19.5506L163.732 20.5106L163.18 22.0706L163.276 22.0466V22.1906L163.3 22.5266L163.252 22.9106L162.964 23.9186ZM172.396 23.0306L171.556 25.0946L171.004 26.3906L170.572 27.3746L170.428 27.6626L170.02 27.9266L169.876 27.7826L169.756 27.9986L169.564 28.1666L169.3 28.1906L169.084 28.2146L169.012 28.0226L168.892 27.8066L168.964 27.4946L169.66 25.6466L172.228 19.4546L172.876 17.9186L173.236 17.4386L173.476 17.5346L173.5 17.8226V18.8546L172.684 21.3266L172.804 21.5426L172.78 21.9266L172.396 23.0306ZM173.332 23.9906L172.252 26.4146L171.82 26.8706L171.676 26.9906L171.316 26.9186V26.7746V26.4386L171.436 26.1506L171.748 25.3826L172.66 23.1986L173.044 22.4546L173.236 22.3106L173.476 22.5746L173.452 22.8866L173.332 23.9906ZM163.444 25.0706L162.964 26.2466L162.604 26.9906L162.388 27.3266L162.196 27.3746L162.148 27.3506L161.956 27.7826L161.812 27.9746L161.884 27.8066L162.076 27.3266H162.052L162.076 27.1106L162.34 26.3186L163.252 24.0626L163.564 23.5346L163.732 23.4866L163.828 23.7266L163.78 24.1586L163.444 25.0706ZM178.662 13.8626L176.934 18.0146L176.334 19.4786L176.046 19.9346L175.83 19.7666L175.878 19.5026L176.214 18.5906L176.142 18.6386L176.046 18.3266V17.0786L176.622 15.2066L177.27 13.6226L177.822 12.6146L178.014 12.3746L178.398 12.2786L178.518 12.2546L178.59 12.3746L178.758 12.6866L178.686 12.9506L178.59 13.2866L178.662 13.2146L178.83 13.2626L178.806 13.3826L178.662 13.8626ZM190.59 16.3586L190.47 17.3186L189.294 20.3666L187.014 25.9106L186.39 27.3746L186.006 28.1906L185.622 28.5026L185.502 28.4786L185.166 28.4306L185.046 28.2626L184.878 28.0226L184.83 27.3986L185.238 26.2706L185.142 26.2946L184.95 26.3426L184.854 26.1746L184.71 25.9586V25.4546L185.022 24.5426L185.694 22.9346L189.054 14.8466L189.894 12.9026L190.014 12.6866L190.278 12.4946L190.422 12.3746L190.662 12.4946L190.854 12.6146L190.878 12.9506L190.566 14.0546L190.422 14.3906L190.494 14.4146L190.566 14.7026L190.59 16.3586ZM184.134 18.9986L184.062 19.1426L184.11 19.1186L184.422 19.0706L184.494 18.9266L184.638 18.6146L184.686 17.9186L184.734 16.5746L185.478 14.3186L185.814 13.6706L185.838 13.4786L186.078 12.7586L186.486 12.4226L186.678 12.6626L186.63 12.8546V12.8786L186.75 12.8546L186.942 12.8306L187.182 12.9266L187.398 13.0226L187.422 13.2386L187.446 13.5026L187.302 14.0066L183.798 22.4546L183.294 23.7026L183.006 24.3266L182.622 24.7346L182.478 24.6866L182.118 24.6146L182.022 24.4226L181.878 24.1826L181.83 23.8466L182.478 21.5906V21.5426L182.454 21.4226L182.622 20.9426L183.654 18.4706L183.99 17.8466L184.182 17.7266L184.422 17.8466V18.0146L184.134 18.9986ZM180.462 14.3666L177.102 22.4546L176.31 24.3506L176.142 24.6866L175.95 24.7106H175.782L175.734 24.5186L175.686 23.9666L175.854 21.8306L176.502 20.1506L176.358 20.4866L176.118 20.6786V20.3186L176.238 19.9586L176.646 18.9506L178.59 14.2706L178.95 13.4546L179.118 13.1906L179.43 13.0946L179.358 13.3106L179.646 12.8786L179.766 12.7106L180.15 12.5906L180.27 12.5426L180.558 12.7106L180.702 12.8306L180.75 13.0946L180.774 13.3586L180.462 14.3666ZM188.766 14.6786L185.214 23.2466L184.326 25.3106L184.038 25.7426L183.918 25.9106L183.774 25.7426L183.606 25.5506L183.678 25.1426L183.918 24.4946L183.774 24.5186L183.75 24.3266L183.702 23.9906L183.774 23.7506L184.614 21.6626L187.566 14.5346L188.31 12.9026L188.454 12.6626L188.694 12.6146L188.886 12.5906L188.91 12.8306L188.814 13.2386L188.934 13.2146L189.126 13.2386L189.15 13.4786L189.054 13.9106L188.766 14.6786ZM176.55 14.5826L176.142 15.5666L175.974 15.9266L175.566 16.0706L175.542 15.9506L175.47 15.4226L175.926 13.5746L176.19 13.1426L176.406 12.9986L176.598 12.8786L176.814 12.9986L176.958 13.0946V13.4306L176.55 14.5826ZM181.83 17.1746L178.182 25.9826L177.27 28.1426L176.91 28.6226L176.766 28.7666L176.574 28.6706L176.382 28.5746L176.406 28.4306L176.454 27.9986L176.478 27.9746H176.382H176.166L176.07 27.7826L175.95 27.5186V26.9426L176.094 25.4786L176.55 24.2066L179.574 16.8626L180.486 14.6786L180.822 13.9346L180.966 13.6466L181.398 13.3586L181.566 13.4306L181.806 13.5506L181.878 13.6706L182.07 13.9826L181.974 15.3266L181.782 15.7826L182.094 15.8306L182.118 16.0946L181.83 17.1746ZM182.838 19.2146L181.686 21.9746L181.014 23.4146L180.678 24.3986L179.742 26.7026L178.974 28.4546L178.638 28.8386L178.494 28.9826L178.326 28.8626L178.11 28.7426V28.5986L178.158 28.2146V28.1666L178.086 28.1906L177.942 28.2386L177.87 28.0466L177.774 27.8546L177.87 27.4946L178.734 25.3586L181.614 18.4466L182.334 16.6706L182.598 16.2386L182.718 16.0706L182.862 16.0946H183.078L183.102 16.2386L183.15 16.5026L183.102 16.8626L182.79 17.7026L182.958 17.5826L183.222 17.7506V17.9426L183.198 18.2786L182.838 19.2146ZM190.566 21.0866L189.63 23.6066L188.19 27.0386L187.542 28.3346L187.374 28.5266L187.11 28.4786H186.99V28.3346V27.9506L186.774 28.1426L186.726 28.0226L186.606 27.7346L186.678 27.5426L187.422 25.7186L189.798 19.9346L190.446 18.3986L190.662 17.9666L190.71 17.8466H191.022V18.1106L190.734 19.3826L190.446 20.0306L190.518 20.0786L190.662 20.1986V20.3906L190.566 21.0866ZM190.35 26.9906L189.918 28.0466L189.75 28.3346L189.318 28.6226V28.4786L189.246 28.1666L189.27 28.1186L189.03 28.3586L188.814 28.5026L188.43 28.4306L188.31 28.4066L188.262 28.2866L188.142 27.9746L188.238 27.6146L188.694 26.4146L190.11 22.9826L190.446 22.1666L190.614 21.8066L190.95 21.6146L190.998 21.7346L191.094 22.1906L190.998 24.0626L190.446 25.6466L190.566 25.6226L190.59 25.9106L190.35 26.9906ZM180.654 28.7426L180.342 29.1506L179.982 29.2226L179.862 29.2466L179.766 29.1266L179.598 28.8146L179.67 28.4306L179.934 27.7346L179.886 27.6386L179.982 27.3986L180.222 26.7506L181.062 24.7346L181.35 24.1106L181.47 23.8946H181.614L181.758 23.9426V24.2066L181.446 25.4306L180.798 26.9426L180.822 26.9906L180.654 28.7426ZM190.206 27.9746L190.302 27.6146L190.398 27.3746L190.59 27.1826L190.758 27.4466L190.71 27.6146L190.59 27.9266L190.206 27.9746ZM199.236 20.5586L199.14 22.5746L198.444 24.5666L197.34 27.2306L196.428 28.8866L196.236 29.0546L195.9 29.1266L195.708 29.1746L195.252 28.9106L195.18 28.5506L195.228 28.2626L194.94 28.5266H194.676H194.46L194.388 28.3346L194.292 28.0706L194.316 27.8786L194.412 27.4946L195.588 24.5906L199.524 15.0866L200.124 13.6706L200.556 12.8066L200.796 12.5186L201.036 12.4226L201.228 12.3266L201.444 12.4946L201.612 12.6146V12.9506L201.54 13.1906L201.612 13.0706L201.9 12.9266L202.092 12.8306L202.404 12.8546H202.596L202.788 13.1186L202.908 13.2626V13.5746L202.5 14.7746L201.852 16.3106L201.3 16.9346L200.916 17.0306L200.796 17.0786L200.532 16.9586L200.316 16.8866L200.268 16.6946L200.172 16.4546L199.74 17.2706L199.284 18.7826L198.972 19.5506L199.212 19.7426V19.9346L199.236 20.5586ZM198.636 14.1746L195.06 22.7906L194.22 24.8066L193.932 25.2386L193.788 25.4066L193.668 25.2386L193.524 24.9986L193.5 24.6146L193.884 22.0946L194.1 21.5426L193.956 21.0866L194.46 19.4306L196.5 14.4866L197.124 13.0706L197.364 12.6866L197.748 12.7346V13.0226L197.724 13.0466L198.036 12.6386L198.516 12.4706L198.756 12.5666L198.924 12.6626L198.948 12.8066L198.996 13.1666L198.924 13.4066L198.636 14.1746ZM199.716 14.1746L195.852 23.4386L194.364 27.0626L194.124 27.5906L193.908 27.8786L193.692 27.9986L193.716 27.8066L193.908 27.1826L193.86 27.0386L193.764 26.7986L193.836 26.3426L194.1 25.4066L194.82 23.7026L198.468 14.8946L198.948 13.7186L199.332 12.9266L199.548 12.6146L199.812 12.5666L200.004 12.5426V12.8066L199.884 13.2386L199.98 13.2146L199.956 13.4066L199.716 14.1746ZM196.404 14.0546L194.316 19.0706L193.812 20.2466L193.572 20.4866L193.356 20.1746L193.332 18.5906L193.476 17.1746L194.1 15.6146L193.716 15.8786L193.596 15.5186L193.98 14.1506L194.556 13.0946L194.796 12.8546L194.964 12.9746L195.132 13.0946L195.084 13.2866L194.988 13.5266L195.132 13.2386L195.324 12.9746L195.732 12.6626L196.068 12.6146H196.26L196.452 12.8066L196.596 12.9506V13.1666L196.62 13.4546L196.404 14.0546ZM206.628 15.7106L205.044 19.5506L202.26 26.2706L201.708 27.5666L201.108 28.5506L200.916 28.7186L200.604 28.8146L200.412 28.8626L200.172 28.7666L199.932 28.6466L199.884 28.3826L199.812 28.1426L199.836 28.0466L199.74 28.1666L199.284 28.3826L199.044 28.3106L198.828 28.2626L198.78 28.0466L198.708 27.7826L198.828 27.2786L199.524 25.5746L199.932 24.6866L200.076 24.4466L200.46 24.1106L200.82 24.1346L201.036 24.2306L201.252 24.5426L201.228 24.7346L201.204 24.8306L202.332 23.7746L203.076 20.2706L203.724 18.4706L203.58 18.4946L203.46 18.5186L203.412 18.3986L203.316 18.0866L203.34 16.4786L204.156 14.4146L204.516 13.5506L204.684 13.1906L205.044 12.8306H205.452L205.644 12.9506L205.884 13.2866L205.86 13.4786L205.74 14.0786L205.86 14.0306L206.172 13.9346L206.34 14.0306L206.676 14.2946L206.82 14.6306L206.628 15.7106ZM194.076 13.3346L193.956 13.6466L193.884 13.7666L193.74 13.6706L193.572 13.5746L193.596 13.3826L193.668 13.0706L193.836 12.9506L193.98 12.8306L194.028 12.9506L194.076 13.3346ZM203.724 14.7266L203.004 16.4306L202.74 16.8146L202.62 16.9586L202.428 16.8866L202.308 16.8386V16.5746L202.476 15.8066L202.5 15.5666L203.148 13.9826L203.412 13.5026L203.484 13.3826V13.5026L203.508 13.5986L203.58 13.5026H203.772L204.036 13.5506L204.012 13.7426L203.724 14.7266ZM207.564 17.3426L204.036 25.8866L203.172 27.9026L203.028 28.1186L202.788 28.2146L202.62 28.2626L202.668 28.1186L202.596 28.2386L202.212 28.5746L201.948 28.4786L201.756 28.4306L201.732 28.2146L201.708 27.9026L201.828 27.5186L202.788 25.1666L205.74 18.0146L206.58 15.9986L206.892 15.3746L207.012 15.1586L207.54 15.0626L207.756 15.3266V15.5906L207.564 16.4786L207.78 16.5986L207.732 16.7906L207.564 17.3426ZM208.74 18.7586L208.644 19.7426L207.78 22.0226L205.86 26.6066L204.852 28.3586L204.66 28.5506L204.372 28.5986L204.18 28.6706L204.012 28.5506L203.82 28.3826L203.796 28.2626V27.9506L203.868 27.7346L203.772 27.8066L203.748 27.6146L203.7 27.4226L203.796 27.1106L204.588 25.1666L207.42 18.3746L208.116 16.7426L208.188 16.5746L208.428 16.5266L208.548 16.5026V16.7666L208.284 17.7026L208.308 17.6786L208.476 17.7986L208.62 17.9426L208.668 18.1346L208.74 18.7586ZM208.908 22.7666L207.612 26.4626L207.036 27.0626L206.82 27.2066L206.628 27.1346L206.436 26.9906L206.484 26.7266L206.532 26.5586L206.34 26.9426L206.076 27.1346L206.028 26.7986L206.148 26.4386L206.508 25.5506L208.188 21.4946L208.62 20.5106L208.788 20.2226L209.028 20.4866L208.98 20.6786L208.764 21.2786L208.572 21.7586L208.788 21.6866L208.884 21.8786L208.956 22.0706L208.908 22.7666ZM199.26 25.4066L198.156 28.0706L197.796 28.5506H197.604L197.436 28.5266L197.412 28.3106V28.0226L197.58 27.6146L197.508 27.6386L197.58 27.4466L197.82 26.7986L198.9 24.2066L199.26 23.3906L199.452 23.2466L199.428 23.4386L199.188 24.2066L199.356 24.1586L199.38 24.4226L199.26 25.4066Z" fill="#4C3DFB"/>
<defs>
<linearGradient id="paint0_linear_143_4205" x1="29.7989" y1="1.25293" x2="29.7989" y2="34.007" gradientUnits="userSpaceOnUse">
<stop stop-color="#9810FA"/>
<stop offset="1" stop-color="#155DFC"/>
</linearGradient>
</defs>
</svg>
